<mxfile host="Electron" agent="Mozilla/5.0 (Windows NT 10.0; Win64; x64) AppleWebKit/537.36 (KHTML, like Gecko) draw.io/24.7.17 Chrome/128.0.6613.36 Electron/32.0.1 Safari/537.36" version="24.7.17">
  <diagram name="Page-1" id="Y0khz110cd7E8uvXe-pl">
    <mxGraphModel dx="919" dy="390" grid="1" gridSize="10" guides="1" tooltips="1" connect="1" arrows="1" fold="1" page="1" pageScale="1" pageWidth="1400" pageHeight="850" math="0" shadow="0">
      <root>
        <mxCell id="0" />
        <mxCell id="1" parent="0" />
        <mxCell id="Fp6s2x_7Wz3J4JaBfxIg-1" value="USER" style="swimlane;fontStyle=0;childLayout=stackLayout;horizontal=1;startSize=30;horizontalStack=0;resizeParent=1;resizeParentMax=0;resizeLast=0;collapsible=1;marginBottom=0;whiteSpace=wrap;html=1;labelBackgroundColor=none;fillColor=#09555B;strokeColor=#BAC8D3;fontColor=#EEEEEE;movable=1;resizable=1;rotatable=1;deletable=1;editable=1;locked=0;connectable=1;" vertex="1" parent="1">
          <mxGeometry x="80" y="120" width="400" height="480" as="geometry" />
        </mxCell>
        <mxCell id="Fp6s2x_7Wz3J4JaBfxIg-2" value="Administration:" style="text;strokeColor=none;fillColor=none;align=left;verticalAlign=middle;spacingLeft=4;spacingRight=4;overflow=hidden;points=[[0,0.5],[1,0.5]];portConstraint=eastwest;rotatable=1;whiteSpace=wrap;html=1;labelBackgroundColor=none;fontColor=#EEEEEE;movable=1;resizable=1;deletable=1;editable=1;locked=0;connectable=1;" vertex="1" parent="Fp6s2x_7Wz3J4JaBfxIg-1">
          <mxGeometry y="30" width="400" height="30" as="geometry" />
        </mxCell>
        <mxCell id="Fp6s2x_7Wz3J4JaBfxIg-3" value="&lt;span style=&quot;white-space: pre;&quot;&gt;&#x9;&lt;/span&gt;get all users: fetches all users" style="text;strokeColor=none;fillColor=none;align=left;verticalAlign=middle;spacingLeft=4;spacingRight=4;overflow=hidden;points=[[0,0.5],[1,0.5]];portConstraint=eastwest;rotatable=1;whiteSpace=wrap;html=1;labelBackgroundColor=none;fontColor=#EEEEEE;fontFamily=Helvetica;movable=1;resizable=1;deletable=1;editable=1;locked=0;connectable=1;" vertex="1" parent="Fp6s2x_7Wz3J4JaBfxIg-1">
          <mxGeometry y="60" width="400" height="30" as="geometry" />
        </mxCell>
        <mxCell id="Fp6s2x_7Wz3J4JaBfxIg-4" value="&lt;span style=&quot;white-space: pre;&quot;&gt;&#x9;&lt;/span&gt;get a user: fetches a user by ID" style="text;strokeColor=none;fillColor=none;align=left;verticalAlign=middle;spacingLeft=4;spacingRight=4;overflow=hidden;points=[[0,0.5],[1,0.5]];portConstraint=eastwest;rotatable=1;whiteSpace=wrap;html=1;labelBackgroundColor=none;fontColor=#EEEEEE;fontFamily=Helvetica;movable=1;resizable=1;deletable=1;editable=1;locked=0;connectable=1;" vertex="1" parent="Fp6s2x_7Wz3J4JaBfxIg-1">
          <mxGeometry y="90" width="400" height="30" as="geometry" />
        </mxCell>
        <mxCell id="Fp6s2x_7Wz3J4JaBfxIg-5" value="&lt;span style=&quot;white-space: pre;&quot;&gt;&#x9;&lt;/span&gt;create a user: creates a user document with required fields" style="text;strokeColor=none;fillColor=none;align=left;verticalAlign=middle;spacingLeft=4;spacingRight=4;overflow=hidden;points=[[0,0.5],[1,0.5]];portConstraint=eastwest;rotatable=1;whiteSpace=wrap;html=1;labelBackgroundColor=none;fontColor=#EEEEEE;fontFamily=Helvetica;movable=1;resizable=1;deletable=1;editable=1;locked=0;connectable=1;" vertex="1" parent="Fp6s2x_7Wz3J4JaBfxIg-1">
          <mxGeometry y="120" width="400" height="30" as="geometry" />
        </mxCell>
        <mxCell id="Fp6s2x_7Wz3J4JaBfxIg-6" value="&lt;span style=&quot;white-space: pre;&quot;&gt;&#x9;&lt;/span&gt;update a user: updates a user by ID, must include complete data for nested fields" style="text;strokeColor=none;fillColor=none;align=left;verticalAlign=middle;spacingLeft=4;spacingRight=4;overflow=hidden;points=[[0,0.5],[1,0.5]];portConstraint=eastwest;rotatable=1;whiteSpace=wrap;html=1;labelBackgroundColor=none;fontColor=#EEEEEE;fontFamily=Helvetica;movable=1;resizable=1;deletable=1;editable=1;locked=0;connectable=1;" vertex="1" parent="Fp6s2x_7Wz3J4JaBfxIg-1">
          <mxGeometry y="150" width="400" height="30" as="geometry" />
        </mxCell>
        <mxCell id="Fp6s2x_7Wz3J4JaBfxIg-7" value="&lt;span style=&quot;white-space: pre;&quot;&gt;&#x9;&lt;/span&gt;delete a user: deletes a user&#39;s document by ID" style="text;strokeColor=none;fillColor=none;align=left;verticalAlign=middle;spacingLeft=4;spacingRight=4;overflow=hidden;points=[[0,0.5],[1,0.5]];portConstraint=eastwest;rotatable=1;whiteSpace=wrap;html=1;labelBackgroundColor=none;fontColor=#EEEEEE;fontFamily=Helvetica;movable=1;resizable=1;deletable=1;editable=1;locked=0;connectable=1;" vertex="1" parent="Fp6s2x_7Wz3J4JaBfxIg-1">
          <mxGeometry y="180" width="400" height="30" as="geometry" />
        </mxCell>
        <mxCell id="Fp6s2x_7Wz3J4JaBfxIg-8" value="All Users:" style="text;strokeColor=none;fillColor=none;align=left;verticalAlign=middle;spacingLeft=4;spacingRight=4;overflow=hidden;points=[[0,0.5],[1,0.5]];portConstraint=eastwest;rotatable=1;whiteSpace=wrap;html=1;labelBackgroundColor=none;fontColor=#EEEEEE;fontFamily=Helvetica;movable=1;resizable=1;deletable=1;editable=1;locked=0;connectable=1;" vertex="1" parent="Fp6s2x_7Wz3J4JaBfxIg-1">
          <mxGeometry y="210" width="400" height="30" as="geometry" />
        </mxCell>
        <mxCell id="Fp6s2x_7Wz3J4JaBfxIg-9" value="&lt;span style=&quot;white-space: pre;&quot;&gt;&#x9;&lt;/span&gt;update password: for authenticated users (JWT), needs current password" style="text;strokeColor=none;fillColor=none;align=left;verticalAlign=middle;spacingLeft=4;spacingRight=4;overflow=hidden;points=[[0,0.5],[1,0.5]];portConstraint=eastwest;rotatable=1;whiteSpace=wrap;html=1;labelBackgroundColor=none;fontColor=#EEEEEE;fontFamily=Helvetica;movable=1;resizable=1;deletable=1;editable=1;locked=0;connectable=1;" vertex="1" parent="Fp6s2x_7Wz3J4JaBfxIg-1">
          <mxGeometry y="240" width="400" height="30" as="geometry" />
        </mxCell>
        <mxCell id="Fp6s2x_7Wz3J4JaBfxIg-10" value="&lt;span style=&quot;white-space: pre;&quot;&gt;&#x9;&lt;/span&gt;update account: for authenticated&amp;nbsp;users (JWT), to update all except password" style="text;strokeColor=none;fillColor=none;align=left;verticalAlign=middle;spacingLeft=4;spacingRight=4;overflow=hidden;points=[[0,0.5],[1,0.5]];portConstraint=eastwest;rotatable=1;whiteSpace=wrap;html=1;labelBackgroundColor=none;fontColor=#EEEEEE;fontFamily=Helvetica;movable=1;resizable=1;deletable=1;editable=1;locked=0;connectable=1;" vertex="1" parent="Fp6s2x_7Wz3J4JaBfxIg-1">
          <mxGeometry y="270" width="400" height="30" as="geometry" />
        </mxCell>
        <mxCell id="Fp6s2x_7Wz3J4JaBfxIg-11" value="&lt;span style=&quot;white-space: pre;&quot;&gt;&#x9;&lt;/span&gt;delete account: for authenticated&amp;nbsp;users (JWT), to deactivate account" style="text;strokeColor=none;fillColor=none;align=left;verticalAlign=middle;spacingLeft=4;spacingRight=4;overflow=hidden;points=[[0,0.5],[1,0.5]];portConstraint=eastwest;rotatable=1;whiteSpace=wrap;html=1;labelBackgroundColor=none;fontColor=#EEEEEE;fontFamily=Helvetica;movable=1;resizable=1;deletable=1;editable=1;locked=0;connectable=1;" vertex="1" parent="Fp6s2x_7Wz3J4JaBfxIg-1">
          <mxGeometry y="300" width="400" height="30" as="geometry" />
        </mxCell>
        <mxCell id="Fp6s2x_7Wz3J4JaBfxIg-12" value="Public:" style="text;strokeColor=none;fillColor=none;align=left;verticalAlign=middle;spacingLeft=4;spacingRight=4;overflow=hidden;points=[[0,0.5],[1,0.5]];portConstraint=eastwest;rotatable=1;whiteSpace=wrap;html=1;shadow=1;labelBackgroundColor=none;fontColor=#EEEEEE;fontFamily=Helvetica;movable=1;resizable=1;deletable=1;editable=1;locked=0;connectable=1;" vertex="1" parent="Fp6s2x_7Wz3J4JaBfxIg-1">
          <mxGeometry y="330" width="400" height="30" as="geometry" />
        </mxCell>
        <mxCell id="Fp6s2x_7Wz3J4JaBfxIg-13" value="&lt;span style=&quot;white-space: pre;&quot;&gt;&#x9;&lt;/span&gt;login: log a user in using phone number and temp code (sent via SMS) or using email and password" style="text;strokeColor=none;fillColor=none;align=left;verticalAlign=middle;spacingLeft=4;spacingRight=4;overflow=hidden;points=[[0,0.5],[1,0.5]];portConstraint=eastwest;rotatable=1;whiteSpace=wrap;html=1;labelBackgroundColor=none;fontColor=#EEEEEE;fontFamily=Helvetica;movable=1;resizable=1;deletable=1;editable=1;locked=0;connectable=1;" vertex="1" parent="Fp6s2x_7Wz3J4JaBfxIg-1">
          <mxGeometry y="360" width="400" height="30" as="geometry" />
        </mxCell>
        <mxCell id="Fp6s2x_7Wz3J4JaBfxIg-14" value="&lt;span style=&quot;white-space: pre;&quot;&gt;&#x9;&lt;/span&gt;sign up: sign a user up either by phone (SMS verification) or email and password (email verification)" style="text;strokeColor=none;fillColor=none;align=left;verticalAlign=middle;spacingLeft=4;spacingRight=4;overflow=hidden;points=[[0,0.5],[1,0.5]];portConstraint=eastwest;rotatable=1;whiteSpace=wrap;html=1;labelBackgroundColor=none;fontColor=#EEEEEE;fontFamily=Helvetica;movable=1;resizable=1;deletable=1;editable=1;locked=0;connectable=1;" vertex="1" parent="Fp6s2x_7Wz3J4JaBfxIg-1">
          <mxGeometry y="390" width="400" height="30" as="geometry" />
        </mxCell>
        <mxCell id="Fp6s2x_7Wz3J4JaBfxIg-15" value="&lt;span style=&quot;white-space: pre;&quot;&gt;&#x9;&lt;/span&gt;forgot password: receives an email and emails a reset password link" style="text;strokeColor=none;fillColor=none;align=left;verticalAlign=middle;spacingLeft=4;spacingRight=4;overflow=hidden;points=[[0,0.5],[1,0.5]];portConstraint=eastwest;rotatable=1;whiteSpace=wrap;html=1;shadow=1;labelBackgroundColor=none;fontColor=#EEEEEE;fontFamily=Helvetica;movable=1;resizable=1;deletable=1;editable=1;locked=0;connectable=1;" vertex="1" parent="Fp6s2x_7Wz3J4JaBfxIg-1">
          <mxGeometry y="420" width="400" height="30" as="geometry" />
        </mxCell>
        <mxCell id="Fp6s2x_7Wz3J4JaBfxIg-16" value="&lt;span style=&quot;white-space: pre;&quot;&gt;&#x9;&lt;/span&gt;reset password: resets password by providing the proper token" style="text;strokeColor=none;fillColor=none;align=left;verticalAlign=middle;spacingLeft=4;spacingRight=4;overflow=hidden;points=[[0,0.5],[1,0.5]];portConstraint=eastwest;rotatable=1;whiteSpace=wrap;html=1;labelBackgroundColor=none;fontColor=#EEEEEE;fontFamily=Helvetica;movable=1;resizable=1;deletable=1;editable=1;locked=0;connectable=1;" vertex="1" parent="Fp6s2x_7Wz3J4JaBfxIg-1">
          <mxGeometry y="450" width="400" height="30" as="geometry" />
        </mxCell>
        <mxCell id="Fp6s2x_7Wz3J4JaBfxIg-62" value="VISIT" style="swimlane;fontStyle=0;childLayout=stackLayout;horizontal=1;startSize=30;horizontalStack=0;resizeParent=1;resizeParentMax=0;resizeLast=0;collapsible=1;marginBottom=0;whiteSpace=wrap;html=1;labelBackgroundColor=none;fillColor=#09555B;strokeColor=#BAC8D3;fontColor=#EEEEEE;movable=1;resizable=1;rotatable=1;deletable=1;editable=1;locked=0;connectable=1;" vertex="1" parent="1">
          <mxGeometry x="560" y="120" width="400" height="660" as="geometry">
            <mxRectangle x="500" y="180" width="60" height="30" as="alternateBounds" />
          </mxGeometry>
        </mxCell>
        <mxCell id="Fp6s2x_7Wz3J4JaBfxIg-63" value="Administration:" style="text;strokeColor=none;fillColor=none;align=left;verticalAlign=middle;spacingLeft=4;spacingRight=4;overflow=hidden;points=[[0,0.5],[1,0.5]];portConstraint=eastwest;rotatable=1;whiteSpace=wrap;html=1;labelBackgroundColor=none;fontColor=#EEEEEE;movable=1;resizable=1;deletable=1;editable=1;locked=0;connectable=1;" vertex="1" parent="Fp6s2x_7Wz3J4JaBfxIg-62">
          <mxGeometry y="30" width="400" height="30" as="geometry" />
        </mxCell>
        <mxCell id="Fp6s2x_7Wz3J4JaBfxIg-64" value="&lt;span style=&quot;white-space: pre;&quot;&gt;&#x9;&lt;/span&gt;get all visits: fetches all visits (closed or open)" style="text;strokeColor=none;fillColor=none;align=left;verticalAlign=middle;spacingLeft=4;spacingRight=4;overflow=hidden;points=[[0,0.5],[1,0.5]];portConstraint=eastwest;rotatable=1;whiteSpace=wrap;html=1;labelBackgroundColor=none;fontColor=#EEEEEE;fontFamily=Helvetica;movable=1;resizable=1;deletable=1;editable=1;locked=0;connectable=1;" vertex="1" parent="Fp6s2x_7Wz3J4JaBfxIg-62">
          <mxGeometry y="60" width="400" height="30" as="geometry" />
        </mxCell>
        <mxCell id="Fp6s2x_7Wz3J4JaBfxIg-65" value="&lt;span style=&quot;white-space: pre;&quot;&gt;&#x9;&lt;/span&gt;get a visit: fetches a visit by ID" style="text;strokeColor=none;fillColor=none;align=left;verticalAlign=middle;spacingLeft=4;spacingRight=4;overflow=hidden;points=[[0,0.5],[1,0.5]];portConstraint=eastwest;rotatable=1;whiteSpace=wrap;html=1;labelBackgroundColor=none;fontColor=#EEEEEE;fontFamily=Helvetica;movable=1;resizable=1;deletable=1;editable=1;locked=0;connectable=1;" vertex="1" parent="Fp6s2x_7Wz3J4JaBfxIg-62">
          <mxGeometry y="90" width="400" height="30" as="geometry" />
        </mxCell>
        <mxCell id="Fp6s2x_7Wz3J4JaBfxIg-66" value="&lt;span style=&quot;white-space: pre;&quot;&gt;&#x9;&lt;/span&gt;create a visit: creates a visit document with required fields" style="text;strokeColor=none;fillColor=none;align=left;verticalAlign=middle;spacingLeft=4;spacingRight=4;overflow=hidden;points=[[0,0.5],[1,0.5]];portConstraint=eastwest;rotatable=1;whiteSpace=wrap;html=1;labelBackgroundColor=none;fontColor=#EEEEEE;fontFamily=Helvetica;movable=1;resizable=1;deletable=1;editable=1;locked=0;connectable=1;" vertex="1" parent="Fp6s2x_7Wz3J4JaBfxIg-62">
          <mxGeometry y="120" width="400" height="30" as="geometry" />
        </mxCell>
        <mxCell id="Fp6s2x_7Wz3J4JaBfxIg-67" value="&lt;span style=&quot;white-space: pre;&quot;&gt;&#x9;&lt;/span&gt;update a visit: updates a visit by ID" style="text;strokeColor=none;fillColor=none;align=left;verticalAlign=middle;spacingLeft=4;spacingRight=4;overflow=hidden;points=[[0,0.5],[1,0.5]];portConstraint=eastwest;rotatable=1;whiteSpace=wrap;html=1;labelBackgroundColor=none;fontColor=#EEEEEE;fontFamily=Helvetica;movable=1;resizable=1;deletable=1;editable=1;locked=0;connectable=1;" vertex="1" parent="Fp6s2x_7Wz3J4JaBfxIg-62">
          <mxGeometry y="150" width="400" height="30" as="geometry" />
        </mxCell>
        <mxCell id="Fp6s2x_7Wz3J4JaBfxIg-68" value="&lt;span style=&quot;white-space: pre;&quot;&gt;&#x9;&lt;/span&gt;delete a visit: deletes a visit document by ID" style="text;strokeColor=none;fillColor=none;align=left;verticalAlign=middle;spacingLeft=4;spacingRight=4;overflow=hidden;points=[[0,0.5],[1,0.5]];portConstraint=eastwest;rotatable=1;whiteSpace=wrap;html=1;labelBackgroundColor=none;fontColor=#EEEEEE;fontFamily=Helvetica;movable=1;resizable=1;deletable=1;editable=1;locked=0;connectable=1;" vertex="1" parent="Fp6s2x_7Wz3J4JaBfxIg-62">
          <mxGeometry y="180" width="400" height="30" as="geometry" />
        </mxCell>
        <mxCell id="Fp6s2x_7Wz3J4JaBfxIg-69" value="Doctor:" style="text;strokeColor=none;fillColor=none;align=left;verticalAlign=middle;spacingLeft=4;spacingRight=4;overflow=hidden;points=[[0,0.5],[1,0.5]];portConstraint=eastwest;rotatable=1;whiteSpace=wrap;html=1;labelBackgroundColor=none;fontColor=#EEEEEE;fontFamily=Helvetica;movable=1;resizable=1;deletable=1;editable=1;locked=0;connectable=1;" vertex="1" parent="Fp6s2x_7Wz3J4JaBfxIg-62">
          <mxGeometry y="210" width="400" height="30" as="geometry" />
        </mxCell>
        <mxCell id="Fp6s2x_7Wz3J4JaBfxIg-70" value="&lt;span style=&quot;white-space: pre;&quot;&gt;&#x9;&lt;/span&gt;update a prescription on a visit: updates a visit&#39;s prescription by the visit ID" style="text;strokeColor=none;fillColor=none;align=left;verticalAlign=middle;spacingLeft=4;spacingRight=4;overflow=hidden;points=[[0,0.5],[1,0.5]];portConstraint=eastwest;rotatable=1;whiteSpace=wrap;html=1;labelBackgroundColor=none;fontColor=#EEEEEE;fontFamily=Helvetica;movable=1;resizable=1;deletable=1;editable=1;locked=0;connectable=1;" vertex="1" parent="Fp6s2x_7Wz3J4JaBfxIg-62">
          <mxGeometry y="240" width="400" height="30" as="geometry" />
        </mxCell>
        <mxCell id="Fp6s2x_7Wz3J4JaBfxIg-71" value="&lt;span style=&quot;white-space: pre;&quot;&gt;&#x9;&lt;/span&gt;delete a prescription&amp;nbsp;on a visit: deletes a visit&#39;s prescription by the visit ID" style="text;strokeColor=none;fillColor=none;align=left;verticalAlign=middle;spacingLeft=4;spacingRight=4;overflow=hidden;points=[[0,0.5],[1,0.5]];portConstraint=eastwest;rotatable=1;whiteSpace=wrap;html=1;labelBackgroundColor=none;fontColor=#EEEEEE;fontFamily=Helvetica;movable=1;resizable=1;deletable=1;editable=1;locked=0;connectable=1;" vertex="1" parent="Fp6s2x_7Wz3J4JaBfxIg-62">
          <mxGeometry y="270" width="400" height="30" as="geometry" />
        </mxCell>
        <mxCell id="Fp6s2x_7Wz3J4JaBfxIg-72" value="Doctor / Secretary:" style="text;strokeColor=none;fillColor=none;align=left;verticalAlign=middle;spacingLeft=4;spacingRight=4;overflow=hidden;points=[[0,0.5],[1,0.5]];portConstraint=eastwest;rotatable=1;whiteSpace=wrap;html=1;labelBackgroundColor=none;fontColor=#EEEEEE;fontFamily=Helvetica;movable=1;resizable=1;deletable=1;editable=1;locked=0;connectable=1;" vertex="1" parent="Fp6s2x_7Wz3J4JaBfxIg-62">
          <mxGeometry y="300" width="400" height="30" as="geometry" />
        </mxCell>
        <mxCell id="Fp6s2x_7Wz3J4JaBfxIg-73" value="&lt;span style=&quot;white-space: pre;&quot;&gt;&#x9;&lt;/span&gt;get all visits: fetches all visits (closed or open) by the doctor ID" style="text;strokeColor=none;fillColor=none;align=left;verticalAlign=middle;spacingLeft=4;spacingRight=4;overflow=hidden;points=[[0,0.5],[1,0.5]];portConstraint=eastwest;rotatable=1;whiteSpace=wrap;html=1;labelBackgroundColor=none;fontColor=#EEEEEE;fontFamily=Helvetica;movable=1;resizable=1;deletable=1;editable=1;locked=0;connectable=1;" vertex="1" parent="Fp6s2x_7Wz3J4JaBfxIg-62">
          <mxGeometry y="330" width="400" height="30" as="geometry" />
        </mxCell>
        <mxCell id="Fp6s2x_7Wz3J4JaBfxIg-107" value="&lt;span style=&quot;white-space: pre;&quot;&gt;&#x9;&lt;/span&gt;get all visits (today): fetches all today&#39;s visits" style="text;strokeColor=none;fillColor=none;align=left;verticalAlign=middle;spacingLeft=4;spacingRight=4;overflow=hidden;points=[[0,0.5],[1,0.5]];portConstraint=eastwest;rotatable=1;whiteSpace=wrap;html=1;labelBackgroundColor=none;fontColor=#EEEEEE;fontFamily=Helvetica;movable=1;resizable=1;deletable=1;editable=1;locked=0;connectable=1;" vertex="1" parent="Fp6s2x_7Wz3J4JaBfxIg-62">
          <mxGeometry y="360" width="400" height="30" as="geometry" />
        </mxCell>
        <mxCell id="Fp6s2x_7Wz3J4JaBfxIg-74" value="&lt;span style=&quot;white-space: pre;&quot;&gt;&#x9;&lt;/span&gt;close a visit: updates a visit&#39;s close status to true by the visit ID (checks if the visit belongs to the doctor by ID)" style="text;strokeColor=none;fillColor=none;align=left;verticalAlign=middle;spacingLeft=4;spacingRight=4;overflow=hidden;points=[[0,0.5],[1,0.5]];portConstraint=eastwest;rotatable=1;whiteSpace=wrap;html=1;labelBackgroundColor=none;fontColor=#EEEEEE;fontFamily=Helvetica;movable=1;resizable=1;deletable=1;editable=1;locked=0;connectable=1;" vertex="1" parent="Fp6s2x_7Wz3J4JaBfxIg-62">
          <mxGeometry y="390" width="400" height="30" as="geometry" />
        </mxCell>
        <mxCell id="Fp6s2x_7Wz3J4JaBfxIg-75" value="Patient:" style="text;strokeColor=none;fillColor=none;align=left;verticalAlign=middle;spacingLeft=4;spacingRight=4;overflow=hidden;points=[[0,0.5],[1,0.5]];portConstraint=eastwest;rotatable=1;whiteSpace=wrap;html=1;labelBackgroundColor=none;fontColor=#EEEEEE;fontFamily=Helvetica;movable=1;resizable=1;deletable=1;editable=1;locked=0;connectable=1;" vertex="1" parent="Fp6s2x_7Wz3J4JaBfxIg-62">
          <mxGeometry y="420" width="400" height="30" as="geometry" />
        </mxCell>
        <mxCell id="Fp6s2x_7Wz3J4JaBfxIg-76" value="&lt;span style=&quot;white-space: pre;&quot;&gt;&#x9;&lt;/span&gt;get all my visits: fetches all visits (closed or open) by the patient ID" style="text;strokeColor=none;fillColor=none;align=left;verticalAlign=middle;spacingLeft=4;spacingRight=4;overflow=hidden;points=[[0,0.5],[1,0.5]];portConstraint=eastwest;rotatable=1;whiteSpace=wrap;html=1;labelBackgroundColor=none;fontColor=#EEEEEE;fontFamily=Helvetica;movable=1;resizable=1;deletable=1;editable=1;locked=0;connectable=1;" vertex="1" parent="Fp6s2x_7Wz3J4JaBfxIg-62">
          <mxGeometry y="450" width="400" height="30" as="geometry" />
        </mxCell>
        <mxCell id="Fp6s2x_7Wz3J4JaBfxIg-77" value="&lt;span style=&quot;white-space: pre;&quot;&gt;&#x9;&lt;/span&gt;get a visit: fetches a visit by ID (checks if it belongs to the patient by ID)" style="text;strokeColor=none;fillColor=none;align=left;verticalAlign=middle;spacingLeft=4;spacingRight=4;overflow=hidden;points=[[0,0.5],[1,0.5]];portConstraint=eastwest;rotatable=1;whiteSpace=wrap;html=1;labelBackgroundColor=none;fontColor=#EEEEEE;fontFamily=Helvetica;movable=1;resizable=1;deletable=1;editable=1;locked=0;connectable=1;" vertex="1" parent="Fp6s2x_7Wz3J4JaBfxIg-62">
          <mxGeometry y="480" width="400" height="30" as="geometry" />
        </mxCell>
        <mxCell id="Fp6s2x_7Wz3J4JaBfxIg-78" value="&lt;span style=&quot;white-space: pre;&quot;&gt;&#x9;&lt;/span&gt;book a visit: books a visit (grabs doctor ID from the body and user ID from the JWT)" style="text;strokeColor=none;fillColor=none;align=left;verticalAlign=middle;spacingLeft=4;spacingRight=4;overflow=hidden;points=[[0,0.5],[1,0.5]];portConstraint=eastwest;rotatable=1;whiteSpace=wrap;html=1;labelBackgroundColor=none;fontColor=#EEEEEE;fontFamily=Helvetica;movable=1;resizable=1;deletable=1;editable=1;locked=0;connectable=1;" vertex="1" parent="Fp6s2x_7Wz3J4JaBfxIg-62">
          <mxGeometry y="510" width="400" height="30" as="geometry" />
        </mxCell>
        <mxCell id="Fp6s2x_7Wz3J4JaBfxIg-79" value="&lt;span style=&quot;white-space: pre;&quot;&gt;&#x9;&lt;/span&gt;update a visit: updates a visit by visit ID (owner&#39;s check)" style="text;strokeColor=none;fillColor=none;align=left;verticalAlign=middle;spacingLeft=4;spacingRight=4;overflow=hidden;points=[[0,0.5],[1,0.5]];portConstraint=eastwest;rotatable=1;whiteSpace=wrap;html=1;labelBackgroundColor=none;fontColor=#EEEEEE;fontFamily=Helvetica;movable=1;resizable=1;deletable=1;editable=1;locked=0;connectable=1;" vertex="1" parent="Fp6s2x_7Wz3J4JaBfxIg-62">
          <mxGeometry y="540" width="400" height="30" as="geometry" />
        </mxCell>
        <mxCell id="Fp6s2x_7Wz3J4JaBfxIg-80" value="&lt;span style=&quot;white-space: pre;&quot;&gt;&#x9;&lt;/span&gt;delete a visit: deletes a visit by visit ID (owner&#39;s check)" style="text;strokeColor=none;fillColor=none;align=left;verticalAlign=middle;spacingLeft=4;spacingRight=4;overflow=hidden;points=[[0,0.5],[1,0.5]];portConstraint=eastwest;rotatable=1;whiteSpace=wrap;html=1;labelBackgroundColor=none;fontColor=#EEEEEE;fontFamily=Helvetica;movable=1;resizable=1;deletable=1;editable=1;locked=0;connectable=1;" vertex="1" parent="Fp6s2x_7Wz3J4JaBfxIg-62">
          <mxGeometry y="570" width="400" height="30" as="geometry" />
        </mxCell>
        <mxCell id="Fp6s2x_7Wz3J4JaBfxIg-81" value="Public:" style="text;strokeColor=none;fillColor=none;align=left;verticalAlign=middle;spacingLeft=4;spacingRight=4;overflow=hidden;points=[[0,0.5],[1,0.5]];portConstraint=eastwest;rotatable=1;whiteSpace=wrap;html=1;labelBackgroundColor=none;fontColor=#EEEEEE;fontFamily=Helvetica;movable=1;resizable=1;deletable=1;editable=1;locked=0;connectable=1;" vertex="1" parent="Fp6s2x_7Wz3J4JaBfxIg-62">
          <mxGeometry y="600" width="400" height="30" as="geometry" />
        </mxCell>
        <mxCell id="Fp6s2x_7Wz3J4JaBfxIg-82" value="&lt;span style=&quot;white-space: pre;&quot;&gt;&#x9;&lt;/span&gt;get prescription&amp;nbsp;on a visit: fetches the prescription field of a visit by visit ID" style="text;strokeColor=none;fillColor=none;align=left;verticalAlign=middle;spacingLeft=4;spacingRight=4;overflow=hidden;points=[[0,0.5],[1,0.5]];portConstraint=eastwest;rotatable=1;whiteSpace=wrap;html=1;labelBackgroundColor=none;fontColor=#EEEEEE;fontFamily=Helvetica;movable=1;resizable=1;deletable=1;editable=1;locked=0;connectable=1;" vertex="1" parent="Fp6s2x_7Wz3J4JaBfxIg-62">
          <mxGeometry y="630" width="400" height="30" as="geometry" />
        </mxCell>
        <mxCell id="Fp6s2x_7Wz3J4JaBfxIg-83" value="REVIEW" style="swimlane;fontStyle=0;childLayout=stackLayout;horizontal=1;startSize=30;horizontalStack=0;resizeParent=1;resizeParentMax=0;resizeLast=0;collapsible=1;marginBottom=0;whiteSpace=wrap;html=1;labelBackgroundColor=none;fillColor=#09555B;strokeColor=#BAC8D3;fontColor=#EEEEEE;movable=1;resizable=1;rotatable=1;deletable=1;editable=1;locked=0;connectable=1;" vertex="1" parent="1">
          <mxGeometry x="1040" y="120" width="400" height="420" as="geometry" />
        </mxCell>
        <mxCell id="Fp6s2x_7Wz3J4JaBfxIg-84" value="Administration:" style="text;strokeColor=none;fillColor=none;align=left;verticalAlign=middle;spacingLeft=4;spacingRight=4;overflow=hidden;points=[[0,0.5],[1,0.5]];portConstraint=eastwest;rotatable=1;whiteSpace=wrap;html=1;labelBackgroundColor=none;fontColor=#EEEEEE;movable=1;resizable=1;deletable=1;editable=1;locked=0;connectable=1;" vertex="1" parent="Fp6s2x_7Wz3J4JaBfxIg-83">
          <mxGeometry y="30" width="400" height="30" as="geometry" />
        </mxCell>
        <mxCell id="Fp6s2x_7Wz3J4JaBfxIg-85" value="&lt;span style=&quot;white-space: pre;&quot;&gt;&#x9;&lt;/span&gt;get all reviews: fetches all reviews" style="text;strokeColor=none;fillColor=none;align=left;verticalAlign=middle;spacingLeft=4;spacingRight=4;overflow=hidden;points=[[0,0.5],[1,0.5]];portConstraint=eastwest;rotatable=1;whiteSpace=wrap;html=1;labelBackgroundColor=none;fontColor=#EEEEEE;fontFamily=Helvetica;movable=1;resizable=1;deletable=1;editable=1;locked=0;connectable=1;" vertex="1" parent="Fp6s2x_7Wz3J4JaBfxIg-83">
          <mxGeometry y="60" width="400" height="30" as="geometry" />
        </mxCell>
        <mxCell id="Fp6s2x_7Wz3J4JaBfxIg-86" value="&lt;span style=&quot;white-space: pre;&quot;&gt;&#x9;&lt;/span&gt;get a review: fetches a review by ID" style="text;strokeColor=none;fillColor=none;align=left;verticalAlign=middle;spacingLeft=4;spacingRight=4;overflow=hidden;points=[[0,0.5],[1,0.5]];portConstraint=eastwest;rotatable=1;whiteSpace=wrap;html=1;labelBackgroundColor=none;fontColor=#EEEEEE;fontFamily=Helvetica;movable=1;resizable=1;deletable=1;editable=1;locked=0;connectable=1;" vertex="1" parent="Fp6s2x_7Wz3J4JaBfxIg-83">
          <mxGeometry y="90" width="400" height="30" as="geometry" />
        </mxCell>
        <mxCell id="Fp6s2x_7Wz3J4JaBfxIg-87" value="&lt;span style=&quot;white-space: pre;&quot;&gt;&#x9;&lt;/span&gt;create a review: creates a review document with required fields" style="text;strokeColor=none;fillColor=none;align=left;verticalAlign=middle;spacingLeft=4;spacingRight=4;overflow=hidden;points=[[0,0.5],[1,0.5]];portConstraint=eastwest;rotatable=1;whiteSpace=wrap;html=1;labelBackgroundColor=none;fontColor=#EEEEEE;fontFamily=Helvetica;movable=1;resizable=1;deletable=1;editable=1;locked=0;connectable=1;" vertex="1" parent="Fp6s2x_7Wz3J4JaBfxIg-83">
          <mxGeometry y="120" width="400" height="30" as="geometry" />
        </mxCell>
        <mxCell id="Fp6s2x_7Wz3J4JaBfxIg-88" value="&lt;span style=&quot;white-space: pre;&quot;&gt;&#x9;&lt;/span&gt;update a review: updates a review by ID" style="text;strokeColor=none;fillColor=none;align=left;verticalAlign=middle;spacingLeft=4;spacingRight=4;overflow=hidden;points=[[0,0.5],[1,0.5]];portConstraint=eastwest;rotatable=1;whiteSpace=wrap;html=1;labelBackgroundColor=none;fontColor=#EEEEEE;fontFamily=Helvetica;movable=1;resizable=1;deletable=1;editable=1;locked=0;connectable=1;" vertex="1" parent="Fp6s2x_7Wz3J4JaBfxIg-83">
          <mxGeometry y="150" width="400" height="30" as="geometry" />
        </mxCell>
        <mxCell id="Fp6s2x_7Wz3J4JaBfxIg-89" value="&lt;span style=&quot;white-space: pre;&quot;&gt;&#x9;&lt;/span&gt;delete a review: deletes a review document by ID" style="text;strokeColor=none;fillColor=none;align=left;verticalAlign=middle;spacingLeft=4;spacingRight=4;overflow=hidden;points=[[0,0.5],[1,0.5]];portConstraint=eastwest;rotatable=1;whiteSpace=wrap;html=1;labelBackgroundColor=none;fontColor=#EEEEEE;fontFamily=Helvetica;movable=1;resizable=1;deletable=1;editable=1;locked=0;connectable=1;" vertex="1" parent="Fp6s2x_7Wz3J4JaBfxIg-83">
          <mxGeometry y="180" width="400" height="30" as="geometry" />
        </mxCell>
        <mxCell id="Fp6s2x_7Wz3J4JaBfxIg-90" value="Patient:" style="text;strokeColor=none;fillColor=none;align=left;verticalAlign=middle;spacingLeft=4;spacingRight=4;overflow=hidden;points=[[0,0.5],[1,0.5]];portConstraint=eastwest;rotatable=1;whiteSpace=wrap;html=1;labelBackgroundColor=none;fontColor=#EEEEEE;fontFamily=Helvetica;movable=1;resizable=1;deletable=1;editable=1;locked=0;connectable=1;" vertex="1" parent="Fp6s2x_7Wz3J4JaBfxIg-83">
          <mxGeometry y="210" width="400" height="30" as="geometry" />
        </mxCell>
        <mxCell id="Fp6s2x_7Wz3J4JaBfxIg-91" value="&lt;span style=&quot;white-space: pre;&quot;&gt;&#x9;&lt;/span&gt;get a review on a visit: fetches a patient&#39;s review on a visit by visit ID" style="text;strokeColor=none;fillColor=none;align=left;verticalAlign=middle;spacingLeft=4;spacingRight=4;overflow=hidden;points=[[0,0.5],[1,0.5]];portConstraint=eastwest;rotatable=1;whiteSpace=wrap;html=1;labelBackgroundColor=none;fontColor=#EEEEEE;fontFamily=Helvetica;movable=1;resizable=1;deletable=1;editable=1;locked=0;connectable=1;" vertex="1" parent="Fp6s2x_7Wz3J4JaBfxIg-83">
          <mxGeometry y="240" width="400" height="30" as="geometry" />
        </mxCell>
        <mxCell id="Fp6s2x_7Wz3J4JaBfxIg-92" value="&lt;span style=&quot;white-space: pre;&quot;&gt;&#x9;&lt;/span&gt;write a review on a visit: creates a review on a successful-closed visit (grabs visit ID from body and patient ID from JWT with owner check)" style="text;strokeColor=none;fillColor=none;align=left;verticalAlign=middle;spacingLeft=4;spacingRight=4;overflow=hidden;points=[[0,0.5],[1,0.5]];portConstraint=eastwest;rotatable=1;whiteSpace=wrap;html=1;labelBackgroundColor=none;fontColor=#EEEEEE;fontFamily=Helvetica;movable=1;resizable=1;deletable=1;editable=1;locked=0;connectable=1;" vertex="1" parent="Fp6s2x_7Wz3J4JaBfxIg-83">
          <mxGeometry y="270" width="400" height="30" as="geometry" />
        </mxCell>
        <mxCell id="Fp6s2x_7Wz3J4JaBfxIg-93" value="&lt;span style=&quot;white-space: pre;&quot;&gt;&#x9;&lt;/span&gt;update a review on a visit: updates a patient&#39;s review on a visit" style="text;strokeColor=none;fillColor=none;align=left;verticalAlign=middle;spacingLeft=4;spacingRight=4;overflow=hidden;points=[[0,0.5],[1,0.5]];portConstraint=eastwest;rotatable=1;whiteSpace=wrap;html=1;labelBackgroundColor=none;fontColor=#EEEEEE;fontFamily=Helvetica;movable=1;resizable=1;deletable=1;editable=1;locked=0;connectable=1;" vertex="1" parent="Fp6s2x_7Wz3J4JaBfxIg-83">
          <mxGeometry y="300" width="400" height="30" as="geometry" />
        </mxCell>
        <mxCell id="Fp6s2x_7Wz3J4JaBfxIg-94" value="&lt;span style=&quot;white-space: pre;&quot;&gt;&#x9;&lt;/span&gt;delete a review on a visit: deletes a patient&#39;s review on a visit" style="text;strokeColor=none;fillColor=none;align=left;verticalAlign=middle;spacingLeft=4;spacingRight=4;overflow=hidden;points=[[0,0.5],[1,0.5]];portConstraint=eastwest;rotatable=1;whiteSpace=wrap;html=1;labelBackgroundColor=none;fontColor=#EEEEEE;fontFamily=Helvetica;movable=1;resizable=1;deletable=1;editable=1;locked=0;connectable=1;" vertex="1" parent="Fp6s2x_7Wz3J4JaBfxIg-83">
          <mxGeometry y="330" width="400" height="30" as="geometry" />
        </mxCell>
        <mxCell id="Fp6s2x_7Wz3J4JaBfxIg-95" value="All Users:" style="text;strokeColor=none;fillColor=none;align=left;verticalAlign=middle;spacingLeft=4;spacingRight=4;overflow=hidden;points=[[0,0.5],[1,0.5]];portConstraint=eastwest;rotatable=1;whiteSpace=wrap;html=1;labelBackgroundColor=none;fontColor=#EEEEEE;fontFamily=Helvetica;movable=1;resizable=1;deletable=1;editable=1;locked=0;connectable=1;" vertex="1" parent="Fp6s2x_7Wz3J4JaBfxIg-83">
          <mxGeometry y="360" width="400" height="30" as="geometry" />
        </mxCell>
        <mxCell id="Fp6s2x_7Wz3J4JaBfxIg-96" value="&lt;span style=&quot;white-space: pre;&quot;&gt;&#x9;&lt;/span&gt;get all reviews on a doctor: fetches all reviews related to a doctor by doctor ID" style="text;strokeColor=none;fillColor=none;align=left;verticalAlign=middle;spacingLeft=4;spacingRight=4;overflow=hidden;points=[[0,0.5],[1,0.5]];portConstraint=eastwest;rotatable=1;whiteSpace=wrap;html=1;labelBackgroundColor=none;fontColor=#EEEEEE;fontFamily=Helvetica;movable=1;resizable=1;deletable=1;editable=1;locked=0;connectable=1;" vertex="1" parent="Fp6s2x_7Wz3J4JaBfxIg-83">
          <mxGeometry y="390" width="400" height="30" as="geometry" />
        </mxCell>
        <mxCell id="Fp6s2x_7Wz3J4JaBfxIg-97" value="DRUG" style="swimlane;fontStyle=0;childLayout=stackLayout;horizontal=1;startSize=30;horizontalStack=0;resizeParent=1;resizeParentMax=0;resizeLast=0;collapsible=1;marginBottom=0;whiteSpace=wrap;html=1;labelBackgroundColor=none;fillColor=#09555B;strokeColor=#BAC8D3;fontColor=#EEEEEE;movable=1;resizable=1;rotatable=1;deletable=1;editable=1;locked=0;connectable=1;" vertex="1" parent="1">
          <mxGeometry x="1520" y="120" width="400" height="300" as="geometry" />
        </mxCell>
        <mxCell id="Fp6s2x_7Wz3J4JaBfxIg-98" value="Administration:" style="text;strokeColor=none;fillColor=none;align=left;verticalAlign=middle;spacingLeft=4;spacingRight=4;overflow=hidden;points=[[0,0.5],[1,0.5]];portConstraint=eastwest;rotatable=1;whiteSpace=wrap;html=1;labelBackgroundColor=none;fontColor=#EEEEEE;movable=1;resizable=1;deletable=1;editable=1;locked=0;connectable=1;" vertex="1" parent="Fp6s2x_7Wz3J4JaBfxIg-97">
          <mxGeometry y="30" width="400" height="30" as="geometry" />
        </mxCell>
        <mxCell id="Fp6s2x_7Wz3J4JaBfxIg-99" value="&lt;span style=&quot;white-space: pre;&quot;&gt;&#x9;&lt;/span&gt;get all drugs: fetches all drugs" style="text;strokeColor=none;fillColor=none;align=left;verticalAlign=middle;spacingLeft=4;spacingRight=4;overflow=hidden;points=[[0,0.5],[1,0.5]];portConstraint=eastwest;rotatable=1;whiteSpace=wrap;html=1;labelBackgroundColor=none;fontColor=#EEEEEE;fontFamily=Helvetica;movable=1;resizable=1;deletable=1;editable=1;locked=0;connectable=1;" vertex="1" parent="Fp6s2x_7Wz3J4JaBfxIg-97">
          <mxGeometry y="60" width="400" height="30" as="geometry" />
        </mxCell>
        <mxCell id="Fp6s2x_7Wz3J4JaBfxIg-100" value="&lt;span style=&quot;white-space: pre;&quot;&gt;&#x9;&lt;/span&gt;get a drug: fetches a drug by ID" style="text;strokeColor=none;fillColor=none;align=left;verticalAlign=middle;spacingLeft=4;spacingRight=4;overflow=hidden;points=[[0,0.5],[1,0.5]];portConstraint=eastwest;rotatable=1;whiteSpace=wrap;html=1;labelBackgroundColor=none;fontColor=#EEEEEE;fontFamily=Helvetica;movable=1;resizable=1;deletable=1;editable=1;locked=0;connectable=1;" vertex="1" parent="Fp6s2x_7Wz3J4JaBfxIg-97">
          <mxGeometry y="90" width="400" height="30" as="geometry" />
        </mxCell>
        <mxCell id="Fp6s2x_7Wz3J4JaBfxIg-101" value="&lt;span style=&quot;white-space: pre;&quot;&gt;&#x9;&lt;/span&gt;create a drug: creates a drug document with required fields" style="text;strokeColor=none;fillColor=none;align=left;verticalAlign=middle;spacingLeft=4;spacingRight=4;overflow=hidden;points=[[0,0.5],[1,0.5]];portConstraint=eastwest;rotatable=1;whiteSpace=wrap;html=1;labelBackgroundColor=none;fontColor=#EEEEEE;fontFamily=Helvetica;movable=1;resizable=1;deletable=1;editable=1;locked=0;connectable=1;" vertex="1" parent="Fp6s2x_7Wz3J4JaBfxIg-97">
          <mxGeometry y="120" width="400" height="30" as="geometry" />
        </mxCell>
        <mxCell id="Fp6s2x_7Wz3J4JaBfxIg-102" value="&lt;span style=&quot;white-space: pre;&quot;&gt;&#x9;&lt;/span&gt;update a drug: updates a drug by ID" style="text;strokeColor=none;fillColor=none;align=left;verticalAlign=middle;spacingLeft=4;spacingRight=4;overflow=hidden;points=[[0,0.5],[1,0.5]];portConstraint=eastwest;rotatable=1;whiteSpace=wrap;html=1;labelBackgroundColor=none;fontColor=#EEEEEE;fontFamily=Helvetica;movable=1;resizable=1;deletable=1;editable=1;locked=0;connectable=1;" vertex="1" parent="Fp6s2x_7Wz3J4JaBfxIg-97">
          <mxGeometry y="150" width="400" height="30" as="geometry" />
        </mxCell>
        <mxCell id="Fp6s2x_7Wz3J4JaBfxIg-103" value="&lt;span style=&quot;white-space: pre;&quot;&gt;&#x9;&lt;/span&gt;delete a drug: deletes a drug document by ID" style="text;strokeColor=none;fillColor=none;align=left;verticalAlign=middle;spacingLeft=4;spacingRight=4;overflow=hidden;points=[[0,0.5],[1,0.5]];portConstraint=eastwest;rotatable=1;whiteSpace=wrap;html=1;labelBackgroundColor=none;fontColor=#EEEEEE;fontFamily=Helvetica;movable=1;resizable=1;deletable=1;editable=1;locked=0;connectable=1;" vertex="1" parent="Fp6s2x_7Wz3J4JaBfxIg-97">
          <mxGeometry y="180" width="400" height="30" as="geometry" />
        </mxCell>
        <mxCell id="Fp6s2x_7Wz3J4JaBfxIg-104" value="Doctor:" style="text;strokeColor=none;fillColor=none;align=left;verticalAlign=middle;spacingLeft=4;spacingRight=4;overflow=hidden;points=[[0,0.5],[1,0.5]];portConstraint=eastwest;rotatable=1;whiteSpace=wrap;html=1;labelBackgroundColor=none;fontColor=#EEEEEE;fontFamily=Helvetica;movable=1;resizable=1;deletable=1;editable=1;locked=0;connectable=1;" vertex="1" parent="Fp6s2x_7Wz3J4JaBfxIg-97">
          <mxGeometry y="210" width="400" height="30" as="geometry" />
        </mxCell>
        <mxCell id="Fp6s2x_7Wz3J4JaBfxIg-105" value="&lt;span style=&quot;white-space: pre;&quot;&gt;&#x9;&lt;/span&gt;get all drugs: fetches all drugs (filtering included)" style="text;strokeColor=none;fillColor=none;align=left;verticalAlign=middle;spacingLeft=4;spacingRight=4;overflow=hidden;points=[[0,0.5],[1,0.5]];portConstraint=eastwest;rotatable=1;whiteSpace=wrap;html=1;labelBackgroundColor=none;fontColor=#EEEEEE;fontFamily=Helvetica;movable=1;resizable=1;deletable=1;editable=1;locked=0;connectable=1;" vertex="1" parent="Fp6s2x_7Wz3J4JaBfxIg-97">
          <mxGeometry y="240" width="400" height="30" as="geometry" />
        </mxCell>
        <mxCell id="Fp6s2x_7Wz3J4JaBfxIg-106" value="&lt;span style=&quot;white-space: pre;&quot;&gt;&#x9;&lt;/span&gt;get a drug: fetches a drug by ID" style="text;strokeColor=none;fillColor=none;align=left;verticalAlign=middle;spacingLeft=4;spacingRight=4;overflow=hidden;points=[[0,0.5],[1,0.5]];portConstraint=eastwest;rotatable=1;whiteSpace=wrap;html=1;labelBackgroundColor=none;fontColor=#EEEEEE;fontFamily=Helvetica;movable=1;resizable=1;deletable=1;editable=1;locked=0;connectable=1;" vertex="1" parent="Fp6s2x_7Wz3J4JaBfxIg-97">
          <mxGeometry y="270" width="400" height="30" as="geometry" />
        </mxCell>
      </root>
    </mxGraphModel>
  </diagram>
</mxfile>
